<svg baseProfile="tiny" version="1.2" viewBox="0 0 512 512" xmlns="http://www.w3.org/2000/svg"><path d="M269.6 406.6h-27.2c-23.1 0-41.9-18.7-41.9-41.9v-60.6c0-23.1 18.7-41.9 41.9-41.9h27.2c23.1 0 41.9 18.7 41.9 41.9v60.6c0 23.2-18.8 41.9-41.9 41.9z" fill="#EDBB98"/><path d="M311.5 363.8v1c0 23.1-18.7 41.9-41.9 41.9h-27.2c-23.1 0-41.9-18.7-41.9-41.9v-1c-87.2 18.9-155.1 76.9-173.3 147.8-.3 1 115.5 0 228.7 0 113.3 0 229 1 228.7 0-18.1-70.9-85.9-129-173.1-147.8z" fill="#E6E6E6"/><ellipse cx="386.4" cy="199.8" fill="#F4C5A2" rx="29.4" ry="40.7" transform="rotate(12.258 386.4 199.829)"/><ellipse cx="125.6" cy="202.4" fill="#F4C5A2" rx="29.4" ry="40.7" transform="rotate(167.742 125.608 202.417)"/><ellipse cx="256.3" cy="197.2" fill="#F4C5A2" rx="126.5" ry="147.6"/><path d="M390.6 97.6c-1.1-12.3-4.7-32-9.6-43.5C366.1 19.3 312.8 4.3 277 .9 210.7-4 187.5 12.3 180 26c0 0-82.2 10.5-66.8 116l17.8 65.3s32.1-88.1 74.2-110.1l-9.1-19.8c3.1 4.1 6.3 8.1 9.6 12 1.8 2.1 3.7 4.3 5.6 6.4 10.1 11.2 21.5 21.8 36.7 26.9 15.3 5.1 32.5 3.9 47.9.1 14.1-3.5 30.4-15.2 45.3-12.8 10.8 1.7 17.9 11.2 22.4 20.3 12.1 24 15.8 50.8 19.4 77.1 5.4-37.1 11-72.7 7.6-109.8zm-26.5 177c-5.9 3.9-74.5 48-94.2 8.3 0 0-7.8-4.6-13.3-2.6-5.5-2-13.3 2.6-13.3 2.6-20.6 41.5-94.6-8.6-94.6-8.6.8 1.8 1.7 3.6 2.6 5.4 22.3 38.6 59.9 64.2 102.6 65.1 1 0 1.9 0 2.7-.1h2.2c44.6-.9 83.4-28.7 105.3-70.1z" fill="#3F2820"/><path d="M352.4 376l-87.5 93.1-105.5-93c-67 25.9-117 76.2-132.2 135.5-.3 1 115.5 0 228.7 0 113.3 0 229 1 228.7 0-15.1-59.4-65.2-109.7-132.2-135.6z" fill="#ED1E79"/><path d="M195.4 264.9c1.2-2.5 3.2-4.6 5.5-6.2 2.3-1.7 4.8-2.9 7.4-4 5.2-2.1 10.7-3.2 16.1-3.8 5.4-.6 10.9-.7 16.3-.5 5.4.3 10.7.8 16.2 1.8l-1.4-.1h2.2l-1.4.1c5.5-1 10.8-1.6 16.2-1.8 5.4-.2 10.8-.1 16.3.5 5.4.6 10.9 1.7 16.1 3.8 2.6 1.1 5.2 2.3 7.4 4 2.3 1.7 4.3 3.8 5.5 6.2-4.6-2.8-9.5-3.4-14.4-3.7-4.9-.2-9.9 0-14.8.5-5 .4-9.9 1.1-14.9 1.8-4.9.7-10 1.5-14.7 2.4l-.7.1h-3.6l-.7-.1c-4.7-.9-9.8-1.7-14.7-2.4-5-.7-9.9-1.4-14.9-1.8-4.9-.4-9.9-.7-14.8-.5-4.7.2-9.6.9-14.2 3.7z" fill="#3F2820"/></svg>